Input #0, mov,mp4,m4a,3gp,3g2,mj2, from '/home/hbattu/projects/huberman-gpt/huberman-audio/mp3/tmpw6ex1wgs.mp4':
  Metadata:
    major_brand     : dash
    minor_version   : 0
    compatible_brands: iso6mp41
    creation_time   : 2021-03-03T13:12:23.000000Z
  Duration: 01:37:57.76, start: 0.000000, bitrate: 129 kb/s
    Stream #0:0(eng): Audio: aac (LC) (mp4a / 0x6134706D), 44100 Hz, stereo, fltp, 0 kb/s (default)
    Metadata:
      creation_time   : 2021-03-03T13:12:23.000000Z
      handler_name    : ISO Media file produced by Google Inc.
Stream mapping:
  Stream #0:0 -> #0:0 (aac (native) -> mp3 (libmp3lame))
Press [q] to stop, [?] for help
[graph_0_in_0_0 @ 0x5586f7175440] tb:1/44100 samplefmt:fltp samplerate:44100 chlayout:0x3
Output #0, mp3, to '../huberman-audio/mp3/mcPSRWUYCv0.mp3':
  Metadata:
    major_brand     : dash
    minor_version   : 0
    compatible_brands: iso6mp41
    TSSE            : Lavf58.29.100
    Stream #0:0(eng): Audio: mp3 (libmp3lame), 44100 Hz, stereo, fltp, delay 1105 (default)
    Metadata:
      creation_time   : 2021-03-03T13:12:23.000000Z
      handler_name    : ISO Media file produced by Google Inc.
      encoder         : Lavc58.54.100 libmp3lame
No more output streams to write to, finishing.
size=   91841kB time=01:37:57.76 bitrate= 128.0kbits/s speed=77.4x    
[AVIOContext @ 0x5586f7068900] Statistics: 0 seeks, 148 writeouts
video:0kB audio:91840kB subtitle:0kB other streams:0kB global headers:0kB muxing overhead: 0.000368%
Input file #0 (/home/hbattu/projects/huberman-gpt/huberman-audio/mp3/tmpw6ex1wgs.mp4):
  Input stream #0:0 (audio): 253134 packets read (94044159 bytes); 253134 frames decoded (259209216 samples); 
  Total: 253134 packets (94044159 bytes) demuxed
Output file #0 (../huberman-audio/mp3/mcPSRWUYCv0.mp3):
  Output stream #0:0 (audio): 225008 frames encoded (259209216 samples); 225009 packets muxed (94044577 bytes); 
  Total: 225009 packets (94044577 bytes) muxed
[AVIOContext @ 0x5586f708a640] Statistics: 2 seeks, 360 writeouts
[AVIOContext @ 0x5586f7071880] Statistics: 95125683 bytes read, 0 seeks
